<?xml version="1.0" encoding="UTF-8"?>
<svg id="Layer_2" data-name="Layer 2" xmlns="http://www.w3.org/2000/svg" xmlns:xlink="http://www.w3.org/1999/xlink" viewBox="0 0 729.97 504.5">
  <defs>
    <style>
      .cls-1 {
        fill: #fff;
      }

      .cls-2 {
        fill: none;
      }

      .cls-3 {
        fill: url(#linear-gradient);
      }

      .cls-4 {
        clip-path: url(#clippath);
      }
    </style>
    <linearGradient id="linear-gradient" x1="221.19" y1="1308.21" x2="508.77" y2="1308.21" gradientTransform="translate(0 1452) scale(1 -1)" gradientUnits="userSpaceOnUse">
      <stop offset="0" stop-color="#036bff"/>
      <stop offset="1" stop-color="#003eff"/>
    </linearGradient>
    <clipPath id="clippath">
      <circle class="cls-2" cx="364.98" cy="143.79" r="143.79"/>
    </clipPath>
  </defs>
  <g id="Layer_2-2" data-name="Layer 2">
    <g>
      <g>
        <circle class="cls-3" cx="364.98" cy="143.79" r="143.79"/>
        <g class="cls-4">
          <g>
            <path class="cls-1" d="M352.46,89.69l3.93,2.58-14.91,39.41c-11.81,15.55-17.97,32.27-17.32,45.77l-10.44,27.57-23.49,61.98-37.25-26.3,66.17-174.8,33.32,23.79h-.01Z"/>
            <path class="cls-1" d="M443.19,87.39c-20.18-20.18-51.89-23.32-80.85-10.85-11.4,4.91-22.38,12.25-32.05,21.92-31.79,31.79-38.33,77.66-16.58,106.56,1.67,2.22,3.5,4.33,5.51,6.34,28.12,28.12,78.67,23.17,112.9-11.07,34.23-34.23,39.18-84.78,11.07-112.9h0ZM408.07,176.24c-26.61,26.61-60.79,35.57-76.34,20.02-4.76-4.76-7.23-11.28-7.58-18.8-.65-13.5,5.51-30.22,17.32-45.77,3.05-4.02,6.49-7.97,10.28-11.76,26.61-26.61,60.78-35.57,76.33-20.02,15.55,15.55,6.59,49.73-20.01,76.33Z"/>
          </g>
        </g>
      </g>
      <g>
        <path class="cls-1" d="M0,349.96h57.85c11.28,0,21.06,1.92,29.34,5.74,8.28,3.83,14.65,9.4,19.11,16.71,4.45,7.31,6.68,15.84,6.68,25.58s-2.3,18.14-6.89,25.16c-4.59,7.03-11.07,12.46-19.42,16.29-8.35,3.83-17.96,5.74-28.82,5.74H12.53v-18.59h43.23c6.4,0,12.01-1.11,16.81-3.34s8.49-5.5,11.07-9.82c2.58-4.31,3.86-9.47,3.86-15.45,0-9.05-2.75-16.04-8.25-20.99-5.5-4.94-13.33-7.41-23.49-7.41H15.66l9.4-6.68v139.09H0v-152.03h0Z"/>
        <path class="cls-1" d="M142.68,497.29c-8.84-4.8-15.8-11.59-20.88-20.36-5.08-8.77-7.62-18.8-7.62-30.07s2.51-20.78,7.52-29.34,11.83-15.28,20.47-20.15c8.63-4.87,18.45-7.31,29.45-7.31s21.02,2.65,29.24,7.94c8.21,5.29,14.37,12.43,18.48,21.41,4.1,8.98,5.81,18.83,5.12,29.55h-100.03v-13.57h86.04l-8.98,8.35c.42-7.38-.39-13.99-2.4-19.84-2.02-5.85-5.4-10.47-10.13-13.89-4.74-3.41-10.51-5.12-17.33-5.12-6.41,0-12.18,1.6-17.33,4.8-5.15,3.2-9.26,7.87-12.32,13.99-3.06,6.13-4.59,13.44-4.59,21.93s1.67,15.18,5.01,21.3c3.34,6.13,7.94,10.79,13.78,13.99,5.85,3.2,12.39,4.8,19.63,4.8,7.94,0,15.21-1.74,21.82-5.22s12.35-8.42,17.23-14.83l9.81,6.06c-1.95,5.01-5.29,10.06-10.02,15.14-4.73,5.08-10.79,9.29-18.17,12.63s-15.53,5.01-24.43,5.01c-10.72,0-20.5-2.4-29.34-7.2h-.03Z"/>
        <path class="cls-1" d="M237.64,392.56h21.72v36.96l-2.09-2.3c1.95-8.35,5.29-15.45,10.02-21.3,4.73-5.85,10.41-9.95,17.02-12.32s13.61-2.37,20.99,0l-3.13,19.42c-7.66-.97-14.59-.17-20.78,2.4-6.2,2.58-11.14,6.75-14.83,12.53s-5.53,12.63-5.53,20.57v53.46h-23.39v-109.43h0Z"/>
        <path class="cls-1" d="M316.37,392.56h76.02v17.54h-76.02v-17.54ZM343.51,353.19c6.4-6.61,15.45-9.92,27.15-9.92,5.01,0,9.82.56,14.41,1.67,4.59,1.12,8.63,2.65,12.11,4.59l-1.88,12.74c-7.1-1.95-13.09-2.92-17.96-2.92-6.13,0-10.93,1.81-14.41,5.43s-5.22,8.63-5.22,15.04v122.17h-23.81v-120.92c0-11.97,3.2-21.27,9.61-27.88Z"/>
        <path class="cls-1" d="M419.76,497.19c-8.98-4.87-16.01-11.62-21.09-20.26-5.08-8.63-7.62-18.52-7.62-29.65s2.54-21.02,7.62-29.66c5.08-8.63,12.11-15.38,21.09-20.26,8.98-4.87,19.25-7.31,30.8-7.31s21.61,2.44,30.59,7.31,16.04,11.63,21.2,20.26c5.15,8.63,7.73,18.52,7.73,29.66s-2.58,21.02-7.73,29.65-12.22,15.38-21.2,20.26c-8.98,4.87-19.18,7.31-30.59,7.31s-21.82-2.44-30.8-7.31ZM468.94,481.84c5.43-3.41,9.61-8.14,12.53-14.2s4.39-12.84,4.39-20.36-1.46-14.48-4.39-20.47c-2.92-5.98-7.1-10.68-12.53-14.1-5.43-3.41-11.56-5.12-18.38-5.12s-12.95,1.71-18.38,5.12-9.64,8.14-12.63,14.2c-3,6.06-4.49,12.84-4.49,20.36s1.49,14.48,4.49,20.47c2.99,5.99,7.2,10.69,12.63,14.1s11.55,5.12,18.38,5.12,12.95-1.7,18.38-5.12h0Z"/>
        <path class="cls-1" d="M522.92,392.56h21.93v24.64l-3.34-5.01c3.62-6.82,8.8-12.22,15.56-16.19,6.75-3.97,14.65-5.95,23.7-5.95,8.07,0,15.14,1.46,21.2,4.39,6.06,2.92,10.86,7.66,14.41,14.2,3.55,6.55,5.32,14.83,5.32,24.85v68.5h-23.81v-65.57c0-6.12-.94-11.28-2.82-15.45-1.88-4.18-4.59-7.27-8.14-9.29-3.55-2.02-7.9-3.03-13.05-3.03-5.85,0-10.83,1.25-14.93,3.76-4.11,2.51-7.24,5.88-9.4,10.13s-3.24,8.88-3.24,13.89v65.57h-23.39v-109.43h0Z"/>
        <path class="cls-1" d="M643.4,496.25c-6.75-5.5-10.13-13.12-10.13-22.87,0-7.38,2.12-13.61,6.37-18.69,4.25-5.08,9.78-8.8,16.6-11.17,6.82-2.37,14.55-3.55,23.18-3.55h34.04v13.37h-30.7c-9.33,0-16.26,1.53-20.78,4.59-4.53,3.06-6.79,7.59-6.79,13.57s1.95,10.16,5.85,13.37c3.9,3.2,9.12,4.8,15.66,4.8,5.71,0,10.82-1.15,15.35-3.45,4.52-2.3,8.11-5.43,10.76-9.4,2.64-3.97,3.97-8.25,3.97-12.84v-28.82c0-8.91-2.37-15.56-7.1-19.94-4.73-4.39-11.14-6.58-19.21-6.58-6.82,0-13.05,1.5-18.69,4.49-5.64,3-10.62,7.2-14.93,12.63l-9.4-7.73c3.62-8.21,9.61-14.93,17.96-20.15s18.17-7.83,29.45-7.83c9.33,0,17.33,1.71,24.02,5.12,6.68,3.41,11.87,8.46,15.56,15.14,3.69,6.68,5.53,14.83,5.53,24.43v67.25h-21.72v-24.64l3.13,5.43c-3.62,6.68-8.91,11.98-15.87,15.87-6.96,3.9-15.32,5.85-25.06,5.85-11.28,0-20.29-2.75-27.04-8.25h-.01Z"/>
      </g>
    </g>
  </g>
</svg>