<?xml version="1.0" encoding="UTF-8"?>
<svg id="Layer_2" data-name="Layer 2" xmlns="http://www.w3.org/2000/svg" xmlns:xlink="http://www.w3.org/1999/xlink" viewBox="0 0 749.28 749.28">
  <defs>
    <style>
      .cls-1 {
        fill: #fff;
      }

      .cls-2 {
        fill: none;
      }

      .cls-3 {
        fill: url(#linear-gradient);
      }

      .cls-4 {
        clip-path: url(#clippath);
      }
    </style>
    <linearGradient id="linear-gradient" x1="0" y1="374.64" x2="749.28" y2="374.64" gradientUnits="userSpaceOnUse">
      <stop offset="0" stop-color="#036bff"/>
      <stop offset="1" stop-color="#003eff"/>
    </linearGradient>
    <clipPath id="clippath">
      <circle class="cls-2" cx="374.64" cy="374.64" r="374.64"/>
    </clipPath>
  </defs>
  <g id="Layer_1-2" data-name="Layer 1">
    <g>
      <circle class="cls-3" cx="374.64" cy="374.64" r="374.64"/>
      <g class="cls-4">
        <g>
          <path class="cls-1" d="M342.02,233.7l10.23,6.72-38.86,102.69c-30.78,40.53-46.83,84.08-45.13,119.26l-27.2,71.83-61.21,161.49-97.06-68.51L255.19,171.72l86.83,61.98Z"/>
          <path class="cls-1" d="M578.42,227.7c-52.57-52.57-135.21-60.77-210.65-28.28-29.71,12.8-58.31,31.92-83.52,57.12-82.83,82.83-99.88,202.35-43.2,277.65,4.34,5.78,9.13,11.29,14.35,16.51,73.26,73.26,204.99,60.36,294.18-28.85,89.19-89.19,102.1-220.9,28.83-294.17ZM486.91,459.2c-69.34,69.33-158.39,92.68-198.9,52.16-12.41-12.41-18.84-29.4-19.75-48.99-1.69-35.18,14.35-78.73,45.13-119.26,7.96-10.48,16.9-20.76,26.78-30.64,69.33-69.33,158.37-92.68,198.89-52.16,40.51,40.51,17.17,129.58-52.15,198.89Z"/>
        </g>
      </g>
    </g>
  </g>
</svg>