<?xml version="1.0" encoding="UTF-8"?>
<svg id="Layer_2" data-name="Layer 2" xmlns="http://www.w3.org/2000/svg" viewBox="0 0 543.14 523.98">
  <defs>
    <style>
      .cls-1 {
        fill: #090e21;
      }
    </style>
  </defs>
  <g id="Layer_1-2" data-name="Layer 1">
    <g>
      <path class="cls-1" d="M259.23,61.98l10.23,6.72-38.86,102.69c-30.78,40.53-46.83,84.08-45.13,119.26l-27.2,71.83-61.21,161.49L0,455.46,172.41,0l86.83,61.98Z"/>
      <path class="cls-1" d="M495.63,55.99C443.06,3.42,360.43-4.78,284.98,27.71c-29.71,12.8-58.31,31.92-83.52,57.12-82.83,82.83-99.88,202.35-43.2,277.65,4.34,5.78,9.13,11.29,14.35,16.51,73.26,73.26,204.99,60.36,294.18-28.85,89.19-89.19,102.1-220.9,28.83-294.17ZM404.13,287.48c-69.34,69.33-158.39,92.68-198.9,52.16-12.41-12.41-18.84-29.4-19.75-48.99-1.69-35.18,14.35-78.73,45.13-119.26,7.96-10.48,16.9-20.76,26.78-30.64,69.33-69.33,158.37-92.68,198.89-52.16,40.51,40.51,17.17,129.58-52.15,198.89Z"/>
    </g>
  </g>
</svg>