<?xml version="1.0" encoding="UTF-8"?>
<svg id="Layer_2" data-name="Layer 2" xmlns="http://www.w3.org/2000/svg" xmlns:xlink="http://www.w3.org/1999/xlink" viewBox="0 0 1010.33 260.06">
  <defs>
    <style>
      .cls-1 {
        fill: #090e21;
      }

      .cls-2 {
        fill: #fff;
      }

      .cls-3 {
        fill: none;
      }

      .cls-4 {
        fill: url(#linear-gradient);
      }

      .cls-5 {
        clip-path: url(#clippath);
      }
    </style>
    <linearGradient id="linear-gradient" x1="0" y1="130.03" x2="260.06" y2="130.03" gradientUnits="userSpaceOnUse">
      <stop offset="0" stop-color="#036bff"/>
      <stop offset="1" stop-color="#003eff"/>
    </linearGradient>
    <clipPath id="clippath">
      <circle class="cls-3" cx="130.03" cy="130.03" r="130.03"/>
    </clipPath>
  </defs>
  <g id="Layer_1-2" data-name="Layer 1">
    <g>
      <g>
        <circle class="cls-4" cx="130.03" cy="130.03" r="130.03"/>
        <g class="cls-5">
          <g>
            <path class="cls-2" d="M118.71,81.11l3.55,2.33-13.49,35.64c-10.68,14.07-16.25,29.18-15.67,41.39l-9.44,24.93-21.24,56.05-33.69-23.78L88.57,59.6l30.14,21.51Z"/>
            <path class="cls-2" d="M200.76,79.03c-18.25-18.25-46.93-21.09-73.11-9.81-10.31,4.44-20.24,11.08-28.99,19.83-28.75,28.75-34.67,70.23-14.99,96.37,1.51,2,3.17,3.92,4.98,5.73,25.43,25.43,71.15,20.95,102.11-10.01,30.96-30.96,35.44-76.67,10.01-102.1ZM169,159.38c-24.07,24.06-54.97,32.17-69.04,18.1-4.31-4.31-6.54-10.2-6.86-17-.59-12.21,4.98-27.33,15.67-41.39,2.76-3.64,5.87-7.21,9.3-10.63,24.06-24.06,54.97-32.17,69.03-18.1,14.06,14.06,5.96,44.97-18.1,69.03Z"/>
          </g>
        </g>
      </g>
      <g>
        <path class="cls-1" d="M350.19,60.47h52.31c10.2,0,19.04,1.73,26.54,5.19,7.49,3.46,13.25,8.5,17.28,15.11,4.03,6.61,6.04,14.32,6.04,23.14s-2.08,16.4-6.23,22.76c-4.15,6.36-10.01,11.27-17.56,14.73-7.55,3.46-16.24,5.19-26.06,5.19h-40.98v-16.81h39.09c5.79,0,10.86-1.01,15.2-3.02,4.34-2.01,7.68-4.97,10.01-8.88,2.33-3.9,3.49-8.56,3.49-13.98,0-8.18-2.49-14.51-7.46-18.98-4.98-4.47-12.06-6.7-21.25-6.7h-36.26l8.5-6.04v125.78h-22.66V60.47Z"/>
        <path class="cls-1" d="M479.22,193.71c-8-4.34-14.29-10.48-18.89-18.41-4.6-7.93-6.89-17-6.89-27.2s2.27-18.79,6.8-26.54c4.53-7.74,10.7-13.82,18.51-18.23,7.81-4.41,16.68-6.61,26.63-6.61s19.01,2.39,26.44,7.18c7.43,4.79,13,11.24,16.71,19.36,3.71,8.12,5.26,17.03,4.63,26.72h-90.46v-12.28h77.81l-8.12,7.55c.38-6.67-.35-12.65-2.17-17.94-1.83-5.29-4.88-9.47-9.16-12.56-4.28-3.08-9.51-4.63-15.68-4.63-5.79,0-11.02,1.45-15.68,4.34-4.66,2.9-8.38,7.11-11.14,12.65-2.77,5.54-4.16,12.15-4.16,19.83s1.51,13.73,4.53,19.26c3.02,5.54,7.18,9.76,12.46,12.65,5.29,2.9,11.21,4.34,17.75,4.34,7.18,0,13.75-1.57,19.74-4.72,5.98-3.15,11.17-7.62,15.58-13.41l8.88,5.48c-1.76,4.53-4.79,9.1-9.07,13.69-4.28,4.6-9.76,8.4-16.43,11.43-6.67,3.02-14.04,4.53-22.1,4.53-9.7,0-18.54-2.17-26.54-6.52Z"/>
        <path class="cls-1" d="M565.09,99h19.64v33.43l-1.89-2.08c1.76-7.55,4.78-13.98,9.07-19.26,4.28-5.29,9.41-9,15.39-11.14,5.98-2.14,12.31-2.14,18.98,0l-2.83,17.56c-6.93-.88-13.19-.16-18.79,2.17-5.6,2.33-10.08,6.11-13.41,11.33-3.34,5.23-5,11.43-5,18.6v48.35h-21.15v-98.96Z"/>
        <path class="cls-1" d="M636.29,99h68.75v15.86h-68.75v-15.86ZM660.84,63.4c5.79-5.98,13.98-8.97,24.55-8.97,4.53,0,8.88.5,13.03,1.51,4.15,1.01,7.8,2.39,10.95,4.16l-1.7,11.52c-6.42-1.76-11.84-2.64-16.24-2.64-5.54,0-9.89,1.64-13.03,4.91-3.15,3.28-4.72,7.81-4.72,13.6v110.48h-21.53v-109.35c0-10.83,2.89-19.23,8.69-25.21Z"/>
        <path class="cls-1" d="M729.8,193.62c-8.12-4.41-14.48-10.51-19.08-18.32-4.6-7.81-6.89-16.74-6.89-26.82s2.3-19.01,6.89-26.82c4.59-7.81,10.95-13.91,19.08-18.32,8.12-4.41,17.4-6.61,27.86-6.61s19.55,2.2,27.67,6.61c8.12,4.41,14.51,10.51,19.17,18.32,4.66,7.81,6.99,16.75,6.99,26.82s-2.33,19.01-6.99,26.82c-4.66,7.81-11.05,13.91-19.17,18.32-8.12,4.41-17.35,6.61-27.67,6.61s-19.74-2.21-27.86-6.61ZM774.27,179.73c4.91-3.08,8.69-7.37,11.33-12.84,2.64-5.48,3.97-11.62,3.97-18.41s-1.32-13.09-3.97-18.51c-2.64-5.41-6.42-9.66-11.33-12.75-4.91-3.08-10.45-4.63-16.62-4.63s-11.71,1.54-16.62,4.63c-4.91,3.09-8.72,7.37-11.43,12.84-2.71,5.48-4.06,11.61-4.06,18.41s1.35,13.1,4.06,18.51c2.71,5.42,6.52,9.67,11.43,12.75,4.91,3.09,10.45,4.63,16.62,4.63s11.71-1.54,16.62-4.63Z"/>
        <path class="cls-1" d="M823.09,99h19.83v22.29l-3.02-4.53c3.27-6.17,7.96-11.05,14.07-14.64,6.11-3.59,13.25-5.38,21.44-5.38,7.3,0,13.69,1.32,19.17,3.97,5.48,2.64,9.82,6.93,13.03,12.84,3.21,5.92,4.82,13.41,4.82,22.48v61.95h-21.53v-59.3c0-5.54-.85-10.2-2.55-13.98-1.7-3.78-4.15-6.58-7.37-8.4-3.21-1.82-7.15-2.74-11.8-2.74-5.29,0-9.79,1.13-13.5,3.4-3.71,2.27-6.55,5.32-8.5,9.16-1.95,3.84-2.93,8.03-2.93,12.56v59.3h-21.15v-98.96Z"/>
        <path class="cls-1" d="M932.04,192.77c-6.11-4.97-9.16-11.87-9.16-20.68,0-6.67,1.92-12.31,5.76-16.9,3.84-4.59,8.84-7.96,15.01-10.1,6.17-2.14,13.16-3.21,20.96-3.21h30.78v12.09h-27.76c-8.44,0-14.7,1.39-18.79,4.16-4.09,2.77-6.14,6.86-6.14,12.28s1.76,9.19,5.29,12.09c3.52,2.9,8.25,4.34,14.17,4.34,5.16,0,9.79-1.04,13.88-3.12,4.09-2.08,7.33-4.91,9.73-8.5,2.39-3.59,3.59-7.46,3.59-11.62v-26.06c0-8.06-2.14-14.07-6.42-18.04-4.28-3.97-10.07-5.95-17.38-5.95-6.17,0-11.8,1.35-16.9,4.06-5.1,2.71-9.6,6.52-13.5,11.43l-8.5-6.99c3.27-7.43,8.69-13.5,16.24-18.23,7.55-4.72,16.43-7.08,26.63-7.08,8.43,0,15.68,1.54,21.72,4.63,6.04,3.09,10.73,7.65,14.07,13.69,3.33,6.04,5,13.41,5,22.1v60.81h-19.64v-22.29l2.83,4.91c-3.28,6.04-8.06,10.83-14.35,14.35-6.3,3.52-13.85,5.29-22.66,5.29-10.2,0-18.35-2.49-24.46-7.46Z"/>
      </g>
    </g>
  </g>
</svg>