<?xml version="1.0" encoding="UTF-8"?>
<svg id="Layer_2" data-name="Layer 2" xmlns="http://www.w3.org/2000/svg" viewBox="0 0 1119.12 299.19">
  <defs>
    <style>
      .cls-1 {
        fill: #090e21;
      }
    </style>
  </defs>
  <g id="Layer_1-2" data-name="Layer 1">
    <g>
      <path class="cls-1" d="M149.59,299.19C67.11,299.19,0,232.08,0,149.59S67.11,0,149.59,0s149.59,67.11,149.59,149.59-67.11,149.59-149.59,149.59ZM149.59,11.62C73.51,11.62,11.62,73.51,11.62,149.59s61.9,137.98,137.98,137.98,137.98-61.9,137.98-137.98S225.68,11.62,149.59,11.62Z"/>
      <g>
        <path class="cls-1" d="M389.16,72.67h57.85c11.28,0,21.06,1.92,29.34,5.74,8.28,3.83,14.65,9.4,19.11,16.71,4.45,7.31,6.68,15.84,6.68,25.58s-2.3,18.14-6.89,25.17c-4.59,7.03-11.07,12.46-19.42,16.29-8.35,3.83-17.96,5.74-28.82,5.74h-45.32v-18.59h43.23c6.4,0,12.01-1.11,16.81-3.34,4.8-2.23,8.49-5.5,11.07-9.82,2.57-4.31,3.86-9.47,3.86-15.45,0-9.05-2.75-16.04-8.25-20.99-5.5-4.94-13.33-7.41-23.49-7.41h-40.1l9.4-6.68v139.08h-25.06V72.67Z"/>
        <path class="cls-1" d="M531.84,220.01c-8.84-4.8-15.8-11.59-20.88-20.36-5.08-8.77-7.62-18.79-7.62-30.07s2.51-20.78,7.52-29.34c5.01-8.56,11.83-15.28,20.47-20.15,8.63-4.87,18.45-7.31,29.45-7.31s21.02,2.65,29.24,7.94c8.21,5.29,14.37,12.43,18.48,21.41,4.1,8.98,5.81,18.83,5.12,29.55h-100.03v-13.57h86.04l-8.98,8.35c.42-7.38-.39-13.99-2.4-19.84-2.02-5.85-5.4-10.47-10.13-13.89-4.74-3.41-10.51-5.12-17.33-5.12-6.41,0-12.18,1.6-17.33,4.8-5.15,3.2-9.26,7.87-12.32,13.99-3.06,6.13-4.59,13.44-4.59,21.93s1.67,15.18,5.01,21.3c3.34,6.13,7.94,10.79,13.78,13.99,5.85,3.2,12.39,4.8,19.63,4.8,7.94,0,15.21-1.74,21.82-5.22,6.61-3.48,12.35-8.42,17.23-14.83l9.82,6.06c-1.95,5.01-5.29,10.06-10.02,15.14-4.73,5.08-10.79,9.29-18.17,12.63-7.38,3.34-15.53,5.01-24.43,5.01-10.72,0-20.5-2.4-29.34-7.21Z"/>
        <path class="cls-1" d="M626.79,115.28h21.72v36.96l-2.09-2.3c1.95-8.35,5.29-15.45,10.02-21.3,4.73-5.85,10.41-9.95,17.02-12.32,6.61-2.37,13.61-2.37,20.99,0l-3.13,19.42c-7.66-.97-14.59-.17-20.78,2.4-6.2,2.58-11.14,6.75-14.83,12.53-3.69,5.78-5.53,12.63-5.53,20.57v53.46h-23.39v-109.43Z"/>
        <path class="cls-1" d="M705.52,115.28h76.02v17.54h-76.02v-17.54ZM732.67,75.91c6.4-6.61,15.45-9.92,27.15-9.92,5.01,0,9.82.56,14.41,1.67,4.59,1.12,8.63,2.65,12.11,4.59l-1.88,12.74c-7.1-1.95-13.09-2.92-17.96-2.92-6.13,0-10.93,1.81-14.41,5.43-3.48,3.62-5.22,8.63-5.22,15.04v122.17h-23.81v-120.92c0-11.97,3.2-21.27,9.61-27.88Z"/>
        <path class="cls-1" d="M808.92,219.9c-8.98-4.87-16.01-11.62-21.09-20.26-5.08-8.63-7.62-18.51-7.62-29.65s2.54-21.02,7.62-29.65c5.08-8.63,12.11-15.38,21.09-20.26,8.98-4.87,19.25-7.31,30.8-7.31s21.61,2.44,30.59,7.31c8.98,4.88,16.04,11.63,21.2,20.26,5.15,8.63,7.73,18.52,7.73,29.65s-2.58,21.02-7.73,29.65c-5.15,8.63-12.22,15.39-21.2,20.26-8.98,4.87-19.18,7.31-30.59,7.31s-21.82-2.44-30.8-7.31ZM858.1,204.55c5.43-3.41,9.61-8.14,12.53-14.2,2.92-6.06,4.38-12.84,4.38-20.36s-1.46-14.48-4.38-20.47c-2.92-5.98-7.1-10.68-12.53-14.1-5.43-3.41-11.56-5.12-18.38-5.12s-12.95,1.71-18.38,5.12c-5.43,3.41-9.64,8.14-12.63,14.2-3,6.06-4.49,12.84-4.49,20.36s1.5,14.48,4.49,20.47c2.99,5.99,7.21,10.69,12.63,14.1,5.43,3.41,11.55,5.12,18.38,5.12s12.95-1.7,18.38-5.12Z"/>
        <path class="cls-1" d="M912.08,115.28h21.93v24.64l-3.34-5.01c3.62-6.82,8.8-12.22,15.56-16.19,6.75-3.97,14.65-5.95,23.7-5.95,8.07,0,15.14,1.46,21.2,4.39,6.06,2.92,10.86,7.66,14.41,14.2,3.55,6.55,5.33,14.83,5.33,24.85v68.5h-23.81v-65.57c0-6.12-.94-11.28-2.82-15.45-1.88-4.18-4.59-7.27-8.14-9.29-3.55-2.02-7.9-3.03-13.05-3.03-5.85,0-10.83,1.25-14.93,3.76-4.11,2.51-7.24,5.88-9.4,10.13-2.16,4.25-3.24,8.88-3.24,13.89v65.57h-23.39v-109.43Z"/>
        <path class="cls-1" d="M1032.56,218.96c-6.75-5.5-10.13-13.12-10.13-22.87,0-7.38,2.12-13.61,6.37-18.69,4.25-5.08,9.78-8.8,16.6-11.17,6.82-2.37,14.55-3.55,23.18-3.55h34.04v13.37h-30.7c-9.33,0-16.26,1.53-20.78,4.59-4.53,3.06-6.79,7.59-6.79,13.57s1.95,10.16,5.85,13.37c3.9,3.21,9.12,4.8,15.66,4.8,5.71,0,10.82-1.15,15.35-3.45,4.52-2.3,8.11-5.43,10.75-9.4,2.64-3.97,3.97-8.25,3.97-12.84v-28.82c0-8.91-2.37-15.56-7.1-19.94-4.73-4.39-11.14-6.58-19.21-6.58-6.82,0-13.05,1.5-18.69,4.49-5.64,3-10.62,7.21-14.93,12.63l-9.4-7.73c3.62-8.21,9.61-14.93,17.96-20.15,8.35-5.22,18.17-7.83,29.45-7.83,9.33,0,17.33,1.71,24.02,5.12,6.68,3.41,11.87,8.46,15.56,15.14,3.69,6.68,5.53,14.83,5.53,24.43v67.25h-21.72v-24.64l3.13,5.43c-3.62,6.68-8.91,11.98-15.87,15.87-6.96,3.9-15.32,5.85-25.06,5.85-11.28,0-20.29-2.75-27.04-8.25Z"/>
      </g>
      <path class="cls-1" d="M137.08,95.5l3.93,2.58-14.91,39.41c-11.81,15.55-17.97,32.27-17.32,45.77l-10.44,27.57-23.49,61.98-37.25-26.3L103.76,71.72l33.32,23.79Z"/>
      <path class="cls-1" d="M227.81,93.2c-20.18-20.18-51.89-23.32-80.85-10.85-11.4,4.91-22.38,12.25-32.05,21.92-31.79,31.79-38.33,77.66-16.58,106.56,1.67,2.22,3.5,4.33,5.51,6.34,28.12,28.12,78.67,23.17,112.9-11.07,34.23-34.23,39.18-84.78,11.07-112.9ZM192.69,182.05c-26.61,26.61-60.79,35.57-76.34,20.02-4.76-4.76-7.23-11.28-7.58-18.8-.65-13.5,5.51-30.22,17.32-45.77,3.05-4.02,6.49-7.97,10.28-11.76,26.61-26.61,60.78-35.57,76.33-20.02,15.55,15.55,6.59,49.73-20.01,76.33Z"/>
    </g>
  </g>
</svg>