<?xml version="1.0" encoding="UTF-8"?>
<svg id="Layer_2" data-name="Layer 2" xmlns="http://www.w3.org/2000/svg" viewBox="0 0 670.96 670.96">
  <defs>
    <style>
      .cls-1 {
        fill: #fff;
      }
    </style>
  </defs>
  <g id="Layer_1-2" data-name="Layer 1">
    <g>
      <path class="cls-1" d="M335.48,670.96C150.5,670.96,0,520.46,0,335.48S150.5,0,335.48,0s335.48,150.5,335.48,335.48-150.49,335.48-335.48,335.48ZM335.48,26.05C164.86,26.05,26.05,164.86,26.05,335.48s138.81,309.43,309.43,309.43,309.43-138.81,309.43-309.43S506.1,26.05,335.48,26.05Z"/>
      <path class="cls-1" d="M307.42,214.18l8.81,5.78-33.45,88.38c-26.5,34.88-40.3,72.37-38.85,102.65l-23.41,61.83-52.68,139-83.54-58.97L232.69,160.83l74.73,53.35Z"/>
      <path class="cls-1" d="M510.88,209.02c-45.25-45.25-116.37-52.3-181.31-24.34-25.57,11.02-50.19,27.48-71.88,49.17-71.29,71.29-85.97,174.16-37.18,238.97,3.74,4.97,7.86,9.72,12.35,14.21,63.06,63.06,176.43,51.95,253.2-24.83,76.77-76.77,87.87-190.13,24.81-253.19ZM432.13,408.26c-59.68,59.67-136.33,79.77-171.2,44.9-10.68-10.69-16.22-25.3-17-42.17-1.46-30.28,12.35-67.76,38.85-102.65,6.85-9.02,14.55-17.87,23.05-26.37,59.67-59.67,136.31-79.77,171.18-44.9,34.87,34.87,14.77,111.53-44.88,171.18Z"/>
    </g>
  </g>
</svg>