<?xml version="1.0" encoding="UTF-8"?>
<svg id="Layer_2" data-name="Layer 2" xmlns="http://www.w3.org/2000/svg" xmlns:xlink="http://www.w3.org/1999/xlink" viewBox="0 0 190.04 188">
  <defs>
    <style>
      .cls-1 {
        fill: url(#linear-gradient);
        fill-rule: evenodd;
      }
    </style>
    <linearGradient id="linear-gradient" x1="0" y1="94" x2="190.04" y2="94" gradientUnits="userSpaceOnUse">
      <stop offset="0" stop-color="#e7ffff"/>
      <stop offset="0" stop-color="#8fd2ff"/>
      <stop offset="1" stop-color="#001aff"/>
    </linearGradient>
  </defs>
  <g id="Layer_1-2" data-name="Layer 1">
    <path class="cls-1" d="M187.08,77.71l-21.78-3.12c.53-6.1.13-11.84-1.11-17.11l20.25-18.21c2.23-2,3.02-4.86,1.85-6.65l-8-12.25c-1.15-1.76-3.87-1.95-6.36-.44l-22.87,13.9c-4.06-3.06-8.81-5.42-14.17-6.97l5.23-22.53c.57-2.48-.86-4.33-3.35-4.33h-17.07c-2.47,0-5.21,1.83-6.42,4.28l-11.16,22.55c-6.46,1.53-12.9,3.89-19.16,6.93l-12.65-14.09c-1.39-1.55-4.27-1.38-6.7.4l-16.76,12.25c-2.43,1.78-3.68,4.6-2.93,6.6l6.97,18.42c-5.02,5.26-9.54,11-13.38,17.09l-23.89,2.83c-2.65.31-5.38,2.51-6.38,5.11L.38,100.33c-1,2.61.03,4.82,2.42,5.17l21.83,3.17c-.78,6.24-.61,12.15.45,17.61l-21.58,19.11c-2.4,2.13-3.37,5.16-2.26,7.08l7.66,13.18c1.11,1.91,3.93,2.12,6.6.47l24.26-14.95c4.11,3.27,8.96,5.8,14.47,7.47l-6.04,24.55c-.67,2.74.79,4.8,3.41,4.8h17.98c2.6,0,5.51-2.02,6.82-4.73l11.82-24.57c6.7-1.65,13.37-4.17,19.82-7.42l13.28,15.15c1.48,1.68,4.47,1.5,6.97-.43l17.1-13.19c2.46-1.9,3.67-4.9,2.83-7.03l-7.65-19.33c4.97-5.45,9.38-11.36,13.08-17.59l23.98-2.88c2.65-.32,5.3-2.54,6.18-5.18l5.97-17.97c.86-2.58-.28-4.76-2.67-5.1h0ZM149.62,91.44c-10.69,30.98-44.09,56.42-74.46,56.42-30.37,0-45.57-25.44-34.1-56.42,11.31-30.54,44.35-54.98,73.94-54.98s45.15,24.44,34.62,54.98Z"/>
  </g>
</svg>