<?xml version="1.0" encoding="UTF-8"?>
<svg id="Layer_2" data-name="Layer 2" xmlns="http://www.w3.org/2000/svg" xmlns:xlink="http://www.w3.org/1999/xlink" viewBox="0 0 196.53 187.88">
  <defs>
    <style>
      .cls-1 {
        fill: url(#linear-gradient-2);
      }

      .cls-2 {
        fill: url(#linear-gradient-4);
      }

      .cls-3 {
        fill: url(#linear-gradient-3);
      }

      .cls-4 {
        fill: url(#linear-gradient);
      }
    </style>
    <linearGradient id="linear-gradient" x1="0" y1="93.94" x2="196.53" y2="93.94" gradientUnits="userSpaceOnUse">
      <stop offset="0" stop-color="#e7ffff"/>
      <stop offset="0" stop-color="#8fd2ff"/>
      <stop offset="1" stop-color="#001aff"/>
    </linearGradient>
    <linearGradient id="linear-gradient-2" x1="86.09" y1="142.51" x2="181.57" y2="142.51" xlink:href="#linear-gradient"/>
    <linearGradient id="linear-gradient-3" x1="48.84" y1="66.8" x2="120.34" y2="66.8" xlink:href="#linear-gradient"/>
    <linearGradient id="linear-gradient-4" x1="104.03" y1="144.59" x2="162.08" y2="144.59" xlink:href="#linear-gradient"/>
  </defs>
  <g id="Layer_1-2" data-name="Layer 1">
    <g>
      <path class="cls-4" d="M189.73,99.69c-2.7,1.94-6.74,1.96-8.35-.04-2.11-2.61.41-7.98.95-11.35C196.1,1.8,83.45-16.28,29.56,62.13c-33.97,49.42-15.44,106.93,36.6,113.27,3.75.46,12.76-.04,14.69,2.28,2.49,2.99-.6,9.1-5.37,9.91-7.05,1.19-20.46-1.56-26.79-3.46C-20.97,163.13-14.97,64.53,60.8,18.21c72.47-44.31,149.98-2.83,133.5,71.37-.68,3.06-1.51,7.91-4.56,10.11Z"/>
      <path class="cls-1" d="M140.71,97.45c47.66-4.07,55.82,52.17,12.81,80.44-30.98,20.37-66.94,7.66-67.43-23.34-.42-26.52,25.59-54.63,54.62-57.11ZM141.05,109.15c-24.81,1.11-46.68,26.38-41.88,48.03,5.18,23.33,38.27,25.36,58.39,3.92,21.27-22.66,11.61-53.21-16.51-51.95Z"/>
      <path class="cls-3" d="M91.15,97.32l17.32-68.28c.15-.59,2.68-2.96,3.46-3.4,4.46-2.52,8.42-.33,8.41,3.85l-18.95,74.33c-.73,2.66-3.48,4.9-6.22,5.2l-42.79-.04c-4.2-1.12-4.87-5.9-1.02-9.54.61-.57,2.93-2.13,3.46-2.13h36.31Z"/>
      <path class="cls-2" d="M155.71,124.09c5.5-1.06,8.26,3.42,4.91,8.19l-31.78,30.87c-2.89,2.31-5.67,2.71-8.2,1.19-5.56-3.33-10.79-10.98-16.11-14.99-2.1-3.67,2.67-9.64,7.28-9.64,4.12,0,10.52,8.82,13.83,10.95h.81s27.03-25.61,27.03-25.61c.69-.35,1.5-.83,2.23-.97Z"/>
    </g>
  </g>
</svg>