<?xml version="1.0" encoding="UTF-8"?>
<svg id="Layer_2" data-name="Layer 2" xmlns="http://www.w3.org/2000/svg" xmlns:xlink="http://www.w3.org/1999/xlink" viewBox="0 0 224.52 188">
  <defs>
    <style>
      .cls-1 {
        fill: url(#linear-gradient-2);
      }

      .cls-2 {
        fill: url(#linear-gradient);
      }
    </style>
    <linearGradient id="linear-gradient" x1="0" y1="94" x2="224.52" y2="94" gradientUnits="userSpaceOnUse">
      <stop offset="0" stop-color="#e7ffff"/>
      <stop offset="0" stop-color="#8fd2ff"/>
      <stop offset="1" stop-color="#001aff"/>
    </linearGradient>
    <linearGradient id="linear-gradient-2" x1="91.16" y1="105.66" x2="134.66" y2="105.66" xlink:href="#linear-gradient"/>
  </defs>
  <g id="Layer_1-2" data-name="Layer 1">
    <g>
      <path class="cls-2" d="M82.03,0c2.88,1.26,3.25,3.72,1.74,7.16h20.41c.05-3.46,2.61-5.85,6.11-7.16h2.5c2.88,1.26,3.27,3.72,1.77,7.16h19.88l.61-.52c-.1-3.06,2.68-5.4,5.65-6.64h2.86c1.67,1.15,3.1,2.25,2.51,4.85-.22.98-1.17,1.79-.53,2.31h19.88c.64-3.49,2.4-5.79,6.05-7.16h2.5c2.65,1.26,3.93,3.77,1.83,7.16h20.41c.55-3.45,2.39-5.9,6.02-7.16h2.5c2.82,1.29,3.65,3.7,1.86,7.16h9.13c5.15,0,10.02,8.21,8.5,13.47l-37.97,132.6-43.01,34.31-1.58.38c-44.58-.42-89.78.72-134-.58-5.89-1.74-8.76-7.51-7.31-14.27L47.72,20.63c1.62-5.27,11.38-13.47,16.53-13.47h9.13c.38-3.32,2.62-5.96,6.14-7.16h2.5ZM206.32,33.58H57.93L16.47,167.61c-.11.35.1,2.29.23,2.72.71,2.42,2.93,3.16,5.51,3.37l116.83-.02,2.72-1.98c2.92-7.39,2.67-17.57,11.65-22.01,5.78-2.86,12.24-.31,17.7-1.32.55-.1,2.7-1.72,2.75-1.89l32.45-112.9Z"/>
      <path class="cls-1" d="M134.66,64.97l-24.15,81.38h-19.34l16.92-56.53h-15.21l3.64-12.08c3.61-.3,7.21-.17,10.92-1.2,6.07-1.68,11.08-5.78,13.86-11.57h13.36Z"/>
    </g>
  </g>
</svg>