<?xml version="1.0" encoding="UTF-8"?>
<svg id="Layer_2" data-name="Layer 2" xmlns="http://www.w3.org/2000/svg" xmlns:xlink="http://www.w3.org/1999/xlink" viewBox="0 0 1920 1080">
  <defs>
    <style>
      .cls-1 {
        fill: #090e21;
      }

      .cls-2 {
        letter-spacing: -.02em;
      }

      .cls-3 {
        fill: url(#linear-gradient-2);
      }

      .cls-4 {
        fill: #fff;
        font-family: IvyEpicVariable-SemiBold, 'IvyEpic Variable';
        font-size: 129.94px;
        font-variation-settings: 'wdth' 100, 'wght' 600, 'slnt' 0;
        font-weight: 600;
      }

      .cls-5 {
        letter-spacing: 0em;
      }

      .cls-6 {
        font-family: IvyEpicVariable-Medium, 'IvyEpic Variable';
        font-size: 12px;
        font-variation-settings: 'wdth' 100, 'wght' 500, 'slnt' 0;
        font-weight: 500;
      }

      .cls-7 {
        fill: url(#linear-gradient-4);
      }

      .cls-8 {
        fill: url(#linear-gradient-3);
      }

      .cls-9 {
        fill: url(#linear-gradient-5);
      }

      .cls-10 {
        letter-spacing: 0em;
      }

      .cls-11 {
        letter-spacing: 0em;
      }

      .cls-12 {
        letter-spacing: 0em;
      }

      .cls-13 {
        fill: url(#linear-gradient);
      }

      .cls-14 {
        letter-spacing: -.02em;
      }
    </style>
    <linearGradient id="linear-gradient" x1="993.87" y1="933.78" x2="993.87" y2="723.47" gradientUnits="userSpaceOnUse">
      <stop offset="0" stop-color="#42bdff"/>
      <stop offset="1" stop-color="#1c6bff"/>
    </linearGradient>
    <linearGradient id="linear-gradient-2" x1="323.85" y1="933.78" x2="323.85" y2="723.47" gradientUnits="userSpaceOnUse">
      <stop offset="0" stop-color="#27c7ff"/>
      <stop offset="0" stop-color="#f3ffff"/>
      <stop offset="1" stop-color="#0092ff"/>
    </linearGradient>
    <linearGradient id="linear-gradient-3" x1="1328.88" y1="933.78" x2="1328.88" y2="723.47" gradientUnits="userSpaceOnUse">
      <stop offset="0" stop-color="#16b7ff"/>
      <stop offset="0" stop-color="#003cff"/>
      <stop offset="1" stop-color="#0097ff"/>
    </linearGradient>
    <linearGradient id="linear-gradient-4" x1="658.86" y1="933.78" x2="658.86" y2="723.47" gradientUnits="userSpaceOnUse">
      <stop offset="0" stop-color="#004dff"/>
      <stop offset="1" stop-color="#f7ffff"/>
      <stop offset="1" stop-color="#009cff"/>
    </linearGradient>
    <linearGradient id="linear-gradient-5" x1="1663.89" y1="933.78" x2="1663.89" y2="723.47" gradientUnits="userSpaceOnUse">
      <stop offset="0" stop-color="#14b4ff"/>
      <stop offset="0" stop-color="#0e86ff"/>
      <stop offset="1" stop-color="#0036ff"/>
    </linearGradient>
  </defs>
  <g id="Layer_1-2" data-name="Layer 1">
    <rect class="cls-1" width="1920" height="1080"/>
    <rect class="cls-13" x="851.42" y="720.41" width="284.89" height="213.37" rx="21.27" ry="21.27"/>
    <path class="cls-3" d="M202.67,720.41h242.36c11.74,0,21.27,9.53,21.27,21.27v170.84c0,11.74-9.53,21.27-21.27,21.27h-242.36c-11.74,0-21.27-9.53-21.27-21.27v-170.84c0-11.74,9.53-21.27,21.27-21.27Z"/>
    <path class="cls-8" d="M1207.7,720.41h242.36c11.74,0,21.27,9.53,21.27,21.27v170.84c0,11.74-9.53,21.27-21.27,21.27h-242.36c-11.74,0-21.27-9.53-21.27-21.27v-170.84c0-11.74,9.53-21.27,21.27-21.27Z"/>
    <path class="cls-7" d="M537.68,720.41h242.36c11.74,0,21.27,9.53,21.27,21.27v170.84c0,11.74-9.53,21.27-21.27,21.27h-242.36c-11.74,0-21.27-9.53-21.27-21.27v-170.84c0-11.74,9.53-21.27,21.27-21.27Z"/>
    <path class="cls-9" d="M1542.71,720.41h242.36c11.74,0,21.27,9.53,21.27,21.27v170.84c0,11.74-9.53,21.27-21.27,21.27h-242.36c-11.74,0-21.27-9.53-21.27-21.27v-170.84c0-11.74,9.53-21.27,21.27-21.27Z"/>
    <text class="cls-4" transform="translate(179.33 213.89)"><tspan class="cls-10" x="0" y="0">M</tspan><tspan x="121.23" y="0">a</tspan><tspan class="cls-5" x="195.3" y="0">x</tspan><tspan class="cls-11" x="265.21" y="0">s</tspan><tspan class="cls-12" x="329.79" y="0">u</tspan><tspan x="408.01" y="0">s g</tspan><tspan class="cls-14" x="576.54" y="0">r</tspan><tspan x="628.13" y="0">adie</tspan><tspan class="cls-10" x="904.12" y="0">n</tspan><tspan x="982.86" y="0">tla</tspan><tspan class="cls-2" x="1146.45" y="0">r</tspan></text>
    <text class="cls-6" transform="translate(925.06 633.89)"><tspan x="0" y="0">medium</tspan></text>
  </g>
</svg>